<svg width="866" height="882" viewBox="0 0 866 882" fill="none" xmlns="http://www.w3.org/2000/svg">
<rect width="866" height="882" rx="146" fill="white"/>
<path fill-rule="evenodd" clip-rule="evenodd" d="M612.302 37.8631C581.734 45.9621 539.635 57.1079 518.75 62.6339C441.547 83.0714 364.359 103.561 287.182 124.092C157.719 158.54 96.7031 175.472 90.3281 178.728C80.4063 183.79 76.0052 191.806 76 204.842C75.9896 217.025 97.9479 305.045 102.87 312.551C106.583 318.223 113.792 320.889 122.313 319.749C125.875 319.275 158.802 310.702 195.479 300.696C283.344 276.743 496.953 219.879 609.443 190.499C658.813 177.603 702.318 165.462 706.13 163.525C716.5 158.233 723.016 148.582 723.958 137.129C724.583 129.54 722.359 118.644 713.313 84.9308C707.031 61.4985 700.234 39.66 698.219 36.3996C693.193 28.2642 683.818 22.8371 675.068 23.0037C671.115 23.0766 642.87 29.7642 612.302 37.8631ZM521.526 100.488C508.271 104.17 495.042 107.941 481.839 111.806L460.677 118.014L467.943 124.311C471.943 127.775 489.125 141.332 506.13 154.441L537.047 178.28L574.672 167.264C595.365 161.207 613.547 156.217 615.078 156.176C618.469 156.087 609.62 147.837 573.953 117.811C559.13 105.327 545.432 95.1756 543.526 95.2485C541.615 95.3214 531.714 97.6756 521.526 100.488ZM297.37 160.035C275.974 165.983 257.385 171.108 256.073 171.426C254.75 171.738 261.802 178.249 271.74 185.889C285 196.129 298.203 206.436 311.349 216.816L332.891 233.842L375.719 220.733L418.552 207.618L400.917 193.051C365.521 163.795 344.292 148.691 339.052 149.04C337.521 149.139 318.766 154.087 297.37 160.035ZM124.62 205.827C119.271 207.384 114.896 209.405 114.896 210.316C114.896 213.306 131.583 279.337 133.432 283.655C134.906 287.108 136.146 287.639 140.349 286.608C149.74 284.301 211.604 265.79 212.328 265.066C213.505 263.889 204.521 256.066 170.531 228.66C152.734 214.306 137.313 202.66 136.26 202.78C135.203 202.9 129.969 204.269 124.62 205.827ZM364.063 283.155C345.901 289.577 336.563 311.29 343.547 330.858C349.286 346.941 366.188 359.894 381.661 360.066C387.359 360.129 389.099 361.42 396.057 370.738C400.406 376.566 405.771 383.613 407.974 386.4C410.177 389.186 411.344 392.103 410.563 392.884C409.781 393.665 363.984 394.769 308.797 395.348C197.88 396.499 199.115 396.374 173.25 409.051C141.141 424.79 116.401 455.884 106.146 493.415C103.156 504.337 102.854 515.941 102.854 618.462C102.854 730.92 102.875 731.535 107.12 746.202C113.938 769.749 122.964 784.973 140.797 802.978C153.75 816.066 159.62 820.431 173.599 827.374C206.12 843.53 190.281 842.618 439.089 842.592L658.615 842.566L673.057 838.478C713.443 827.045 741.479 804.118 758.609 768.514C771.948 740.795 771.62 744.571 771.62 618.462C771.62 505.999 771.599 505.384 767.354 490.717C756.714 453.978 733.193 424.91 701.224 408.999C675.542 396.212 678.068 396.467 571.094 395.707C456.177 394.889 462.432 396.41 483.365 374.374C495.26 361.853 497.057 360.66 507.255 358.556C536.005 352.618 550.297 319.353 534.036 296.217C526.714 285.795 518.214 281.342 505.797 281.431C482.141 281.592 462.896 302.806 465.495 325.853C466.448 334.306 466.406 334.368 452.307 349.124L438.161 363.92L427.099 349.488C416.234 335.316 416.042 334.858 416.557 324.441C417.224 311.004 412.734 300.394 402.464 291.15C390.958 280.785 378.25 278.139 364.063 283.155ZM213.078 444.514C182.969 452.566 158.984 479.853 153.927 511.806C151.438 527.535 151.323 705.577 153.792 723.441C158.396 756.764 180.693 782.478 212.078 790.65C221.75 793.17 249.807 793.525 438.359 793.525C647.479 793.525 653.927 793.42 665.365 789.868C694.161 780.915 715.109 756.853 720.776 726.212C722.01 719.54 722.49 678.66 722.109 612.478C721.526 510.816 721.453 508.983 717.38 498.196C706.745 469.983 687.01 451.311 660.542 444.415C644.359 440.202 228.854 440.29 213.078 444.514ZM296.943 547.181C275.667 551.53 256.188 566.92 247.12 586.556C242.469 596.613 241.802 600.207 241.87 614.754C241.938 629.233 242.646 632.874 247.266 642.426C272.089 693.78 344.313 694.394 369.854 643.467C377.026 629.165 378.188 606.379 372.516 591.327C362.625 565.098 341.896 549.202 314.042 546.488C308.948 545.988 301.25 546.301 296.943 547.181ZM555.151 547.228C534.057 550.764 513.964 566.681 504.313 587.488C500.24 596.275 499.396 600.764 499.349 613.827C499.302 627.827 499.948 630.91 505.193 641.618C512.766 657.082 518.969 664.03 532.286 671.962C559.938 688.426 594.75 683.134 616.688 659.129C628.885 645.785 634.109 632.202 634.109 613.827C634.109 593.733 628.719 580.832 614.318 566.426C598.083 550.191 577.432 543.493 555.151 547.228Z" fill="#031024"/>
</svg>
