<svg width="866" height="882" viewBox="0 0 866 882" fill="none" xmlns="http://www.w3.org/2000/svg">
<rect width="866" height="882" rx="146" fill="white"/>
<path fill-rule="evenodd" clip-rule="evenodd" d="M566.53 134.243C543.416 140.37 511.582 148.801 495.79 152.981C437.412 168.442 379.046 183.941 320.687 199.472C222.792 225.53 176.655 238.339 171.834 240.801C164.332 244.631 161.004 250.695 161 260.556C160.992 269.771 177.596 336.356 181.318 342.033C184.126 346.323 189.577 348.341 196.02 347.478C198.713 347.119 223.612 340.634 251.345 333.066C317.785 314.946 479.308 271.931 564.368 249.706C601.699 239.95 634.596 230.767 637.479 229.301C645.32 225.298 650.247 217.997 650.96 209.334C651.432 203.593 649.751 195.351 642.91 169.848C638.16 152.123 633.021 135.603 631.497 133.136C627.696 126.982 620.607 122.877 613.991 123.003C611.002 123.058 589.644 128.117 566.53 134.243ZM497.889 181.617C487.866 184.402 477.862 187.254 467.879 190.178L451.877 194.874L457.371 199.638C460.396 202.258 473.388 212.513 486.247 222.43L509.625 240.463L538.075 232.13C553.722 227.548 567.471 223.773 568.629 223.742C571.193 223.675 564.502 217.434 537.532 194.721C526.323 185.277 515.966 177.598 514.524 177.653C513.079 177.708 505.592 179.489 497.889 181.617ZM328.391 226.661C312.212 231.161 298.156 235.037 297.164 235.278C296.163 235.514 301.496 240.439 309.01 246.219C319.037 253.965 329.021 261.762 338.961 269.614L355.25 282.493L387.635 272.577L420.024 262.656L406.689 251.636C379.924 229.506 363.871 218.08 359.909 218.344C358.751 218.419 344.57 222.162 328.391 226.661ZM197.764 261.301C193.72 262.479 190.411 264.007 190.411 264.697C190.411 266.958 203.03 316.908 204.428 320.174C205.543 322.787 206.48 323.188 209.658 322.408C216.759 320.663 263.538 306.661 264.086 306.113C264.976 305.223 258.182 299.305 232.481 278.573C219.023 267.715 207.362 258.905 206.566 258.996C205.767 259.086 201.809 260.123 197.764 261.301ZM378.821 319.796C365.088 324.654 358.027 341.079 363.308 355.882C367.648 368.048 380.428 377.846 392.129 377.977C396.437 378.024 397.753 379.001 403.014 386.049C406.303 390.458 410.359 395.789 412.025 397.897C413.691 400.004 414.573 402.211 413.983 402.802C413.392 403.393 378.762 404.228 337.032 404.665C253.161 405.536 254.094 405.441 234.537 415.031C210.257 426.937 191.55 450.459 183.795 478.849C181.534 487.111 181.306 495.889 181.306 573.442C181.306 658.512 181.322 658.977 184.532 670.072C189.687 687.884 196.512 699.4 209.997 713.02C219.791 722.921 224.23 726.223 234.8 731.475C259.391 743.696 247.415 743.007 435.553 742.987L601.55 742.968L612.47 739.875C643.008 731.227 664.208 713.883 677.162 686.95C687.248 665.982 686.999 668.839 686.999 573.442C686.999 488.368 686.984 487.903 683.774 476.809C675.728 449.017 657.942 427.028 633.769 414.992C614.349 405.319 616.259 405.512 535.37 404.937C448.474 404.319 453.204 405.469 469.033 388.799C478.028 379.328 479.386 378.426 487.098 376.834C508.837 372.342 519.644 347.178 507.349 329.677C501.811 321.794 495.384 318.425 485.995 318.492C468.107 318.614 453.555 334.661 455.52 352.095C456.241 358.49 456.209 358.537 445.548 369.699L434.852 380.892L426.487 369.975C418.271 359.254 418.126 358.907 418.516 351.028C419.02 340.863 415.625 332.837 407.858 325.844C399.159 318.004 389.549 316.002 378.821 319.796ZM264.653 441.858C241.885 447.949 223.749 468.59 219.925 492.761C218.043 504.66 217.956 639.341 219.823 652.854C223.304 678.062 240.164 697.513 263.897 703.695C271.21 705.602 292.426 705.87 435.001 705.87C593.129 705.87 598.005 705.791 606.654 703.104C628.429 696.331 644.269 678.129 648.553 654.95C649.487 649.904 649.849 618.979 649.562 568.915C649.121 492.013 649.065 490.626 645.986 482.466C637.944 461.124 623.021 446.999 603.007 441.783C590.77 438.596 276.582 438.663 264.653 441.858ZM328.068 519.521C311.98 522.811 297.25 534.453 290.394 549.306C286.877 556.914 286.373 559.633 286.424 570.637C286.475 581.59 287.011 584.344 290.504 591.57C309.274 630.417 363.887 630.882 383.201 592.358C388.624 581.539 389.502 564.302 385.213 552.915C377.734 533.074 362.06 521.05 340.997 518.997C337.146 518.619 331.325 518.855 328.068 519.521ZM523.315 519.556C507.364 522.231 492.17 534.272 484.873 550.012C481.793 556.658 481.155 560.054 481.119 569.936C481.084 580.526 481.572 582.858 485.538 590.959C491.264 602.656 495.955 607.912 506.025 613.913C526.934 626.367 553.258 622.364 569.846 604.205C579.07 594.111 583.02 583.836 583.02 569.936C583.02 554.736 578.943 544.976 568.054 534.079C555.778 521.798 540.163 516.731 523.315 519.556Z" fill="#031024"/>
</svg>
